<svg xmlns="http://www.w3.org/2000/svg" width="24" height="24" viewBox="0 0 24 24" fill="none">
  <path d="M10.5 4V8H13.5V4H15V8H16.5C16.7652 8 17.0196 8.10536 17.2071 8.29289C17.3946 8.48043 17.5 8.73478 17.5 9V13L14.5 17V19C14.5 19.2652 14.3946 19.5196 14.2071 19.7071C14.0196 19.8946 13.7652 20 13.5 20H10.5C10.2348 20 9.98043 19.8946 9.79289 19.7071C9.60536 19.5196 9.5 19.2652 9.5 19V17L6.5 13V9C6.5 8.73478 6.60536 8.48043 6.79289 8.29289C6.98043 8.10536 7.23478 8 7.5 8H9V4H10.5ZM11 16.5V18.5H13V16.5L16 12.5V9.5H8V12.5L11 16.5Z" fill="#2F2F2F"/>
</svg>