<svg xmlns="http://www.w3.org/2000/svg" width="24" height="24" viewBox="0 0 24 24" fill="none">
  <path d="M4 20.0008H12V18.5008H4V20.0008ZM18.9 3.50078C18.3 2.90078 17.4 2.90078 16.8 3.50078L9.6 10.7008C9.2 10.6008 8.9 10.7008 8.5 10.8008C8 11.0008 7 11.5008 6.6 13.0008C6.2 14.7008 5.8 15.2008 5.5 15.7008C5.4 15.8008 5.3 16.0008 5.2 16.1008L4.6 17.2008H6C8 17.2008 9.4 16.8008 10.7 15.8008C11.5 15.2008 11.9 14.4008 12 13.5008C12 13.2008 12 13.0008 11.9 12.8008L19 5.70078C19.5 5.10078 19.5 4.10078 18.9 3.50078ZM9.7 14.7008C9 15.2008 8.2 15.5008 7.3 15.7008C7.5 15.2008 7.8 14.5008 8.1 13.4008C8.3 12.8008 8.5 12.4008 8.9 12.3008C9.4 12.2008 9.9 12.4008 10.2 12.6008C10.4 12.8008 10.5 13.1008 10.4 13.4008C10.4 13.7008 10.3 14.3008 9.7 14.7008Z" fill="#2F2F2F"/>
</svg>