<svg xmlns="http://www.w3.org/2000/svg" width="24" height="24" viewBox="0 0 24 24" fill="none">
  <path d="M19 7.5H11.372C11.0631 6.62611 10.2297 6 9.25 6C8.27034 6 7.43691 6.62611 7.12803 7.5H5V9H7.12803C7.43691 9.87389 8.27034 10.5 9.25 10.5C10.2297 10.5 11.0631 9.87389 11.372 9H19V7.5Z" fill="#2F2F2F"/>
  <path d="M19 15H16.872C16.5631 14.1261 15.7297 13.5 14.75 13.5C13.7703 13.5 12.9369 14.1261 12.628 15H5V16.5H12.628C12.9369 17.3739 13.7703 18 14.75 18C15.7297 18 16.5631 17.3739 16.872 16.5H19V15Z" fill="#101517"/>
</svg>